PathFileType	4	(x/y/z)	S05_M20_T01
DataRate	CameraRate	NumFrames	NumMarkers	Units	OrigDataRate	OrigDataStartFrame	OrigNumFrames
240	240	9	50	mm	240	68	541
Frame#	Time	Sternum			R.Acromium			L.Acromium			Top.Head			R.ASIS			L.ASIS			R.PSIS			L.PSIS			R.Great.Tro			L.Great.Tro			R.Iliac.Crest			L.Iliac.Crest			V.Sacral			R.Thigh.Upper.Post			R.Thigh.Lower.Ant			R.Thigh.Lower.Post			R.Thigh.Upper.Ant			R.Knee.Lat			R.Knee.Med			R.Shank.Upper.Post			R.Shank.Lower.Ant			R.Shank.Lower.Post			R.Shank.Upper.Ant			R.Ankle.Lat			R.Ankle.Med			R.Heel.Upper			R.Heel.Med			R.Heel.Lat			R.Toe.Lat			R.Toe.Med			R.Toe.Tip			L.Thigh.Upper.Post			L.Thigh.Lower.Ant			L.Thigh.Lower.Post			L.Thigh.Upper.Ant			L.Knee.Lat			L.Shank.Upper.Post			L.Shank.Lower.Ant			L.Shank.Lower.Post			L.Shank.Upper.Ant			L.Ankle.Lat			L.Ankle.Med			L.Heel.Upper			L.Heel.Med			L.Heel.Lat			L.Toe.Lat			L.Toe.Med			L.Toe.Tip			Cervical.Spine			Back			
		X1	Y1	Z1	X2	Y2	Z2	X3	Y3	Z3	X4	Y4	Z4	X5	Y5	Z5	X6	Y6	Z6	X7	Y7	Z7	X8	Y8	Z8	X9	Y9	Z9	X10	Y10	Z10	X11	Y11	Z11	X12	Y12	Z12	X13	Y13	Z13	X14	Y14	Z14	X15	Y15	Z15	X16	Y16	Z16	X17	Y17	Z17	X18	Y18	Z18	X19	Y19	Z19	X20	Y20	Z20	X21	Y21	Z21	X22	Y22	Z22	X23	Y23	Z23	X24	Y24	Z24	X25	Y25	Z25	X26	Y26	Z26	X27	Y27	Z27	X28	Y28	Z28	X29	Y29	Z29	X30	Y30	Z30	X31	Y31	Z31	X32	Y32	Z32	X33	Y33	Z33	X34	Y34	Z34	X35	Y35	Z35	X36	Y36	Z36	X37	Y37	Z37	X38	Y38	Z38	X39	Y39	Z39	X40	Y40	Z40	X41	Y41	Z41	X42	Y42	Z42	X43	Y43	Z43	X44	Y44	Z44	X45	Y45	Z45	X46	Y46	Z46	X47	Y47	Z47	X48	Y48	Z48	X49	Y49	Z49	X50	Y50	Z50	

68	0.27917	-416.76	1256.1	305.52	-510.48	1522.7	446.68	-505.55	1520	107.44	-517.17	1816.7	248.85	-498.41	1000.5	435.59	-471.41	1007.2	188.15	-690.66	1019.1	330.02	-680.2	1023.5	239.07	-584.24	919.54	492.46	-544.08	928.14	102.01	-588.07	1085.7	465.39	-559.23	1082.4	131.65	-700.26	986.48	295.27	-468.6	711.75	517.23	-394.35	654.06	476.82	-454.11	622.68	504.88	-413.4	741.17	486.99	-449.03	531.28	495.47	-425.7	510.89	364.86	-662.13	436.34	461.95	-678.13	348.42	452.2	-722.11	393.69	438.02	-617.39	391.02	475.58	-773.82	310.51	426.45	-734.03	314.56	342.51	-845.38	337.58	359.02	-861.81	314.49	326.51	-868.31	312.28	391.28	-795.26	164.18	441.86	-754.09	150	327.54	-707.94	106.03	377.87	-495.64	690.56	117.18	-404.88	634.67	147.22	-468.53	600.84	137.48	-423.83	721.76	126.86	-437.76	518.08	147.11	-499.12	316.35	153.47	-431.8	259	161.13	-501.13	245.54	174.43	-433.86	328.37	145.75	-471.42	113.79	186.71	-437.05	129.72	271.5	-526.79	65.175	242.79	-515.75	42.363	275.49	-526.78	38.343	214.58	-346.26	36.264	153.55	-319.19	51.927	271.67	-258.32	62.175	214.25	-567.37	1560.8	280.8	-685.25	1283.6	287.13
69	0.28333	-412.23	1257	305.17	-505.85	1523.7	446.4	-500.8	1521	107.19	-512.24	1817.7	248.85	-493.6	1001.7	435.05	-467.22	1008.1	187.59	-686.09	1020	330.11	-675.82	1024.4	239.13	-578.87	920.83	492.4	-540.29	928.8	101.77	-583.09	1086.9	465.11	-555.07	1083.3	131.33	-695.74	987.37	295.4	-460.28	714.52	516.89	-385.49	657.83	476	-444.61	625.64	504.51	-405.73	744.69	486.24	-438.41	534.11	494.89	-415.29	514.25	364.19	-650.68	437.12	461.27	-665.72	349.02	451.5	-710.19	393.84	437.36	-605.4	392.26	474.83	-760.98	310.1	425.7	-721.41	314.83	341.69	-833.2	336.26	358.48	-849.32	312.93	325.96	-855.7	310.55	390.74	-780.26	163.58	440.87	-738.96	150.3	326.48	-691.92	107.11	376.81	-493.21	690.92	117.14	-402.76	634.46	146.99	-466.62	601.05	137.45	-421.14	721.67	126.58	-436.31	518.05	147.09	-498.39	316.5	153.6	-431.25	258.96	161.22	-500.6	245.7	174.55	-433.1	328.33	145.83	-471.26	113.86	186.76	-436.91	129.73	271.6	-526.79	65.223	242.83	-515.75	42.377	275.51	-526.77	38.415	214.61	-346.25	36.272	153.55	-319.15	51.826	271.68	-258.27	62.076	214.26	-562.64	1561.8	280.5	-680.56	1284.6	286.75
70	0.2875	-407.72	1258	304.82	-501.22	1524.6	446.13	-496.09	1522.1	106.95	-507.33	1818.7	248.87	-488.79	1002.9	434.51	-463.02	1008.9	187.03	-681.52	1020.9	330.21	-671.44	1025.3	239.19	-573.51	922.11	492.35	-536.53	929.43	101.54	-578.13	1088.1	464.85	-550.92	1084.1	131.03	-691.22	988.24	295.54	-452.01	717.32	516.52	-376.71	661.61	475.17	-435.18	628.63	504.12	-398.12	748.22	485.49	-427.89	536.98	494.29	-405.01	517.65	363.49	-639.27	437.8	460.56	-653.3	349.51	450.79	-698.28	393.84	436.68	-593.44	393.44	474.07	-748.07	309.51	424.93	-708.73	314.92	340.86	-820.96	334.68	357.92	-836.74	311.09	325.38	-843.02	308.56	390.17	-765.07	162.82	439.91	-723.65	150.45	325.45	-675.73	108.06	375.74	-490.81	691.26	117.12	-400.67	634.23	146.79	-464.76	601.26	137.46	-418.48	721.56	126.32	-434.89	518.03	147.1	-497.69	316.65	153.76	-430.71	258.91	161.33	-500.09	245.84	174.69	-432.37	328.29	145.94	-471.1	113.94	186.82	-436.77	129.74	271.73	-526.8	65.277	242.88	-515.75	42.388	275.54	-526.76	38.489	214.65	-346.24	36.29	153.55	-319.11	51.719	271.7	-258.23	61.975	214.29	-557.93	1562.7	280.22	-675.88	1285.6	286.37
71	0.29167	-403.21	1259	304.47	-496.6	1525.5	445.87	-491.4	1523.1	106.73	-502.44	1819.6	248.9	-483.99	1004.1	433.98	-458.82	1009.7	186.47	-676.96	1021.8	330.31	-667.06	1026.1	239.26	-568.16	923.38	492.31	-532.78	930.06	101.31	-573.21	1089.2	464.59	-546.76	1084.9	130.73	-686.71	989.09	295.68	-443.79	720.14	516.15	-368.02	665.4	474.32	-425.83	631.66	503.72	-390.57	751.74	484.72	-417.48	539.87	493.66	-394.87	521.07	362.77	-627.91	438.36	459.82	-640.86	349.89	450.07	-686.37	393.69	435.98	-581.49	394.55	473.29	-735.11	308.73	424.14	-695.99	314.85	340.03	-808.66	332.84	357.33	-824.06	308.97	324.78	-830.25	306.31	389.58	-749.7	161.92	438.97	-708.16	150.46	324.45	-659.37	108.92	374.67	-488.45	691.6	117.13	-398.63	633.99	146.6	-462.94	601.45	137.49	-415.84	721.43	126.07	-433.52	518	147.14	-497	316.79	153.95	-430.19	258.87	161.45	-499.6	245.99	174.86	-431.65	328.25	146.07	-470.94	114.02	186.9	-436.63	129.74	271.87	-526.82	65.334	242.94	-515.75	42.394	275.57	-526.75	38.564	214.69	-346.23	36.317	153.56	-319.07	51.603	271.72	-258.18	61.87	214.31	-553.23	1563.6	279.96	-671.19	1286.5	286
72	0.29583	-398.72	1259.9	304.12	-491.97	1526.4	445.61	-486.75	1524.2	106.51	-497.56	1820.5	248.95	-479.21	1005.2	433.46	-454.61	1010.4	185.92	-672.41	1022.6	330.41	-662.69	1026.9	239.33	-562.83	924.63	492.28	-529.05	930.67	101.09	-568.31	1090.3	464.35	-542.6	1085.6	130.44	-682.2	989.9	295.83	-435.62	722.97	515.77	-359.42	669.19	473.45	-416.57	634.71	503.3	-383.08	755.25	483.94	-407.19	542.78	493	-384.87	524.52	362.03	-616.61	438.81	459.06	-628.41	350.15	449.34	-674.46	393.39	435.26	-569.57	395.58	472.5	-722.09	307.78	423.35	-683.2	314.62	339.19	-796.29	330.75	356.71	-811.3	306.59	324.16	-817.39	303.8	388.98	-734.15	160.9	438.06	-692.48	150.35	323.49	-642.85	109.68	373.59	-486.11	691.93	117.16	-396.61	633.74	146.43	-461.15	601.64	137.55	-413.23	721.28	125.83	-432.18	517.97	147.19	-496.33	316.93	154.16	-429.68	258.82	161.59	-499.11	246.12	175.05	-430.95	328.21	146.21	-470.78	114.1	186.98	-436.5	129.74	272.03	-526.86	65.393	243.01	-515.75	42.397	275.61	-526.74	38.64	214.73	-346.22	36.352	153.57	-319.03	51.48	271.75	-258.13	61.761	214.35	-548.55	1564.5	279.71	-666.5	1287.4	285.63
73	0.3	-394.23	1260.8	303.77	-487.34	1527.3	445.36	-482.12	1525.2	106.3	-492.7	1821.4	249.01	-474.43	1006.3	432.95	-450.4	1011.2	185.38	-667.86	1023.4	330.51	-658.32	1027.7	239.41	-557.49	925.87	492.26	-525.33	931.26	100.88	-563.45	1091.3	464.11	-538.44	1086.4	130.16	-677.69	990.69	295.97	-427.51	725.81	515.38	-350.92	672.97	472.56	-407.39	637.78	502.87	-375.65	758.74	483.15	-397	545.71	492.32	-375	527.98	361.27	-605.35	439.15	458.28	-615.94	350.31	448.61	-662.56	392.94	434.53	-557.68	396.55	471.7	-709	306.65	422.54	-670.34	314.23	338.34	-783.86	328.41	356.08	-798.43	303.94	323.52	-804.44	301.05	388.36	-718.42	159.76	437.19	-676.63	150.13	322.56	-626.18	110.36	372.52	-483.79	692.25	117.22	-394.63	633.48	146.29	-459.38	601.83	137.64	-410.64	721.12	125.61	-430.87	517.95	147.26	-495.66	317.07	154.39	-429.18	258.78	161.74	-498.62	246.26	175.25	-430.26	328.17	146.36	-470.61	114.18	187.08	-436.37	129.74	272.21	-526.91	65.456	243.08	-515.75	42.396	275.65	-526.74	38.717	214.78	-346.2	36.395	153.59	-318.98	51.351	271.78	-258.07	61.649	214.39	-543.88	1565.3	279.47	-661.81	1288.3	285.26
74	0.30417	-389.74	1261.7	303.43	-482.71	1528.1	445.12	-477.52	1526.2	106.1	-487.86	1822.3	249.09	-469.66	1007.4	432.45	-446.18	1011.9	184.85	-663.32	1024.2	330.61	-653.95	1028.5	239.48	-552.17	927.09	492.25	-521.62	931.84	100.69	-558.61	1092.4	463.88	-534.26	1087.1	129.88	-673.18	991.44	296.11	-419.45	728.65	514.98	-342.51	676.73	471.67	-398.31	640.86	502.42	-368.3	762.2	482.35	-386.93	548.64	491.62	-365.26	531.44	360.5	-594.14	439.39	457.49	-603.46	350.36	447.88	-650.65	392.35	433.79	-545.82	397.46	470.9	-695.85	305.35	421.73	-657.42	313.68	337.51	-771.36	325.84	355.43	-785.46	301.05	322.86	-791.38	298.06	387.72	-702.51	158.51	436.35	-660.6	149.81	321.68	-609.35	110.98	371.46	-481.48	692.56	117.29	-392.67	633.2	146.16	-457.64	602	137.75	-408.07	720.95	125.4	-429.59	517.93	147.35	-495	317.21	154.62	-428.68	258.74	161.89	-498.14	246.39	175.45	-429.58	328.14	146.53	-470.44	114.26	187.19	-436.25	129.73	272.39	-526.97	65.519	243.16	-515.74	42.393	275.69	-526.73	38.795	214.83	-346.19	36.445	153.61	-318.93	51.215	271.81	-258.01	61.531	214.43	-539.23	1566.2	279.25	-657.11	1289.2	284.89
75	0.30833	-385.26	1262.6	303.09	-478.08	1528.9	444.9	-472.93	1527.2	105.91	-483.03	1823.1	249.18	-464.9	1008.4	431.96	-441.95	1012.6	184.33	-658.78	1024.9	330.72	-649.58	1029.2	239.56	-546.85	928.28	492.24	-517.91	932.41	100.5	-553.8	1093.3	463.65	-530.07	1087.8	129.61	-668.67	992.16	296.25	-411.46	731.48	514.57	-334.2	680.47	470.75	-389.32	643.94	501.97	-361.02	765.64	481.54	-376.98	551.59	490.9	-355.66	534.91	359.72	-582.98	439.52	456.69	-590.97	350.31	447.15	-638.75	391.62	433.05	-533.98	398.29	470.09	-682.64	303.89	420.92	-644.42	313	336.68	-758.77	323.05	354.77	-772.38	297.92	322.19	-778.22	294.85	387.08	-686.42	157.18	435.56	-644.39	149.4	320.85	-592.37	111.55	370.41	-479.18	692.87	117.38	-390.72	632.92	146.05	-455.92	602.18	137.88	-405.51	720.77	125.21	-428.33	517.91	147.45	-494.34	317.34	154.86	-428.18	258.7	162.05	-497.65	246.51	175.66	-428.89	328.1	146.7	-470.27	114.34	187.3	-436.13	129.72	272.59	-527.04	65.583	243.24	-515.74	42.386	275.74	-526.72	38.875	214.89	-346.18	36.501	153.63	-318.88	51.073	271.85	-257.95	61.409	214.48	-534.58	1567	279.04	-652.42	1290	284.53
76	0.3125	-380.78	1263.5	302.75	-473.44	1529.7	444.68	-468.37	1528.2	105.73	-478.23	1824	249.28	-460.15	1009.4	431.49	-437.71	1013.3	183.83	-654.24	1025.7	330.82	-645.21	1029.9	239.64	-541.53	929.45	492.25	-514.2	932.96	100.33	-549.01	1094.3	463.43	-525.88	1088.4	129.35	-664.16	992.85	296.39	-403.54	734.29	514.16	-326	684.17	469.82	-380.42	647.01	501.5	-353.81	769.04	480.71	-367.14	554.54	490.17	-346.2	538.36	358.93	-571.86	439.55	455.89	-578.46	350.17	446.43	-626.84	390.76	432.31	-522.16	399.06	469.29	-669.35	302.29	420.11	-631.35	312.18	335.86	-746.1	320.03	354.1	-759.18	294.56	321.51	-764.94	291.42	386.43	-670.16	155.78	434.81	-628.01	148.91	320.06	-575.25	112.08	369.39	-476.88	693.18	117.49	-388.79	632.64	145.96	-454.2	602.35	138.03	-402.96	720.58	125.03	-427.09	517.89	147.57	-493.68	317.48	155.09	-427.67	258.65	162.22	-497.17	246.64	175.86	-428.21	328.07	146.88	-470.1	114.41	187.42	-436.01	129.71	272.8	-527.11	65.648	243.32	-515.73	42.378	275.79	-526.71	38.955	214.94	-346.16	36.56	153.66	-318.83	50.927	271.89	-257.88	61.283	214.53	-529.94	1567.8	278.85	-647.71	1290.8	284.18
